<?xml version="1.0" encoding="UTF-8"?>
<svg id="Layer_1" data-name="Layer 1" xmlns="http://www.w3.org/2000/svg" viewBox="0 0 177.25 201.34">
  <defs>
    <style>
      .cls-1 {
        font-family: Roboto-Bold, Roboto;
        font-size: 12.98px;
        font-weight: 700;
      }

      .cls-2 {
        fill: #f7931e;
      }
    </style>
  </defs>
  <g>
    <path class="cls-2" d="M0,117.2c.36,11.72.72,23.45,1.08,35.17,38.63,21.56,49.09,27.4,87.72,48.97,29.49-16.96,58.97-33.92,88.46-50.88-.22-10.75-.44-21.51-.67-32.26-29.04,17.51-58.09,35.03-87.13,52.54C59.64,152.89,29.82,135.04,0,117.2Z"/>
    <path class="cls-2" d="M175.76,57.46c-28.93-16.41-57.87-32.81-86.8-49.22C59.47,25.09,29.99,41.94.5,58.79c.11,14.3.22,28.6.33,42.9,12.75,7.76,25.5,15.52,38.24,23.28,14.85-9.31,29.71-18.62,44.56-27.94-8.63-6.38-14.09-11.76-22.2-18.03-6.65,4.21-16.71,10.49-23.36,14.7-3.33-2.11-6.65-4.21-9.98-6.32-.67-5.21-1.33-10.42-2-15.63,19.73-11.53,39.46-23.06,59.2-34.59,21.28,11.09,42.57,22.17,63.85,33.26v18.29c-28.6,16.18-57.2,32.37-85.8,48.55,8.76,5.54,17.51,11.09,26.27,16.63,29.04-16.85,58.09-33.7,87.13-50.55-.33-15.3-.67-30.6-1-45.89Z"/>
    <circle class="cls-2" cx="92.15" cy="71.66" r="16.53"/>
  </g>
  <text class="cls-1" transform="translate(157.3 11.11)"><tspan x="0" y="0">TM</tspan></text>
</svg>