<?xml version="1.0" encoding="utf-8"?>
<!-- Generator: Adobe Illustrator 27.5.0, SVG Export Plug-In . SVG Version: 6.00 Build 0)  -->
<svg version="1.1" xmlns="http://www.w3.org/2000/svg" xmlns:xlink="http://www.w3.org/1999/xlink" x="0px" y="0px"
	 viewBox="0 0 750 500" style="enable-background:new 0 0 750 500;" xml:space="preserve">
<g id="Background_Simple">
	<g>
		<path style="fill:#92E3A9;" d="M735.091,213.142c-2.735-40.591-28.076-79.301-65.31-108.813
			c-21.783-17.265-47.726-32.246-75.825-43.746c-29.162-11.936-60.884-25.322-95.472-26.754c-8.536-0.354-17.253,0.084-25.574,1.957
			c-31.862,7.174,32.852,29.013,41.326,32.228C424.09,44.076,330.805,19.79,233.683,24.296
			c-18.727,0.869-38.097,2.987-54.254,10.388c-16.157,7.401-28.286,21.277-25.208,34.715c2.544,11.108,14.226,23.334,4.213,32.267
			c-2.863,2.554-7.018,4.116-11.104,5.482c-20.968,7.008-43.772,10.931-63.536,19.702c-30.606,13.583-50.804,37.786-59.519,62.99
			c-8.715,25.204-7.027,51.46-1.978,76.807c9.503,47.703,31.525,94.764,73.37,131.14c59.771,51.96,154.988,77.071,249.316,79.564
			c114.14,3.017,236.313-27.847,308.598-94.878c10.721-9.941,20.466-20.911,23.965-33.171c3.5-12.26-0.36-26.066-13.232-33.8
			c-3.469-2.084-7.911-4.278-7.7-7.63c0.285-4.535,8.231-6.233,14.297-7.311c39.801-7.071,61.204-40.526,63.968-70.269
			C735.413,224.551,735.474,218.828,735.091,213.142z"/>
		<path style="opacity:0.7;fill:#FFFFFF;" d="M735.091,213.142c-2.735-40.591-28.076-79.301-65.31-108.813
			c-21.783-17.265-47.726-32.246-75.825-43.746c-29.162-11.936-60.884-25.322-95.472-26.754c-8.536-0.354-17.253,0.084-25.574,1.957
			c-31.862,7.174,32.852,29.013,41.326,32.228C424.09,44.076,330.805,19.79,233.683,24.296
			c-18.727,0.869-38.097,2.987-54.254,10.388c-16.157,7.401-28.286,21.277-25.208,34.715c2.544,11.108,14.226,23.334,4.213,32.267
			c-2.863,2.554-7.018,4.116-11.104,5.482c-20.968,7.008-43.772,10.931-63.536,19.702c-30.606,13.583-50.804,37.786-59.519,62.99
			c-8.715,25.204-7.027,51.46-1.978,76.807c9.503,47.703,31.525,94.764,73.37,131.14c59.771,51.96,154.988,77.071,249.316,79.564
			c114.14,3.017,236.313-27.847,308.598-94.878c10.721-9.941,20.466-20.911,23.965-33.171c3.5-12.26-0.36-26.066-13.232-33.8
			c-3.469-2.084-7.911-4.278-7.7-7.63c0.285-4.535,8.231-6.233,14.297-7.311c39.801-7.071,61.204-40.526,63.968-70.269
			C735.413,224.551,735.474,218.828,735.091,213.142z"/>
	</g>
</g>
<g id="Clouds">
	<path style="fill:none;stroke:#263238;stroke-miterlimit:10;" d="M215.082,101.786c2.888-1.703,5.326-5.1,8.095-7.266
		c7.059-5.522,15.702-8.805,24.723-8.621c20.686,0.422,29.128,22.796,31.661,23.641c2.533,0.844,8.021-8.021,17.308-6.332
		c9.287,1.689,10.976,9.287,13.931,11.398c2.955,2.111,10.976-3.799,16.042-2.111c5.066,1.689,4.222,7.177,9.287,7.599
		c5.066,0.422,8.021-2.111,11.82-1.266c3.799,0.844,6.332,4.644,6.332,4.644c-58.694,0-117.389-0.011-176.083,0.001
		c-42.911,0.008-85.822-0.004-128.732-0.007c4.633-7.827,11.09-15.064,19.656-18.122c13.066-4.665,27.21,1.288,40.901,3.529
		c1.369,0.224,2.851,0.394,4.079-0.253c1.651-0.869,2.273-2.881,2.703-4.697c2.453-10.368,3.8-21.34,9.527-30.325
		c8.943-14.03,28.626-20.011,43.863-13.33c14.31,6.275,22.652,20.939,31.031,34.127c1.681,2.646,3.48,5.347,6.12,7.038
		C210.418,103.399,212.88,103.085,215.082,101.786z"/>
	<path style="fill:none;stroke:#263238;stroke-miterlimit:10;" d="M481.732,149.899c1.661-0.98,3.063-2.933,4.656-4.179
		c4.06-3.176,9.031-5.064,14.219-4.958c11.897,0.243,16.753,13.111,18.209,13.596c1.457,0.486,4.613-4.613,9.954-3.642
		c5.342,0.971,6.313,5.341,8.012,6.555c1.7,1.214,6.313-2.185,9.226-1.214c2.914,0.971,2.428,4.127,5.341,4.37
		c2.913,0.243,4.613-1.214,6.798-0.728c2.185,0.486,3.642,2.671,3.642,2.671c-33.757,0-67.513-0.006-101.27,0
		c-24.679,0.005-49.358-0.002-74.037-0.004c2.664-4.502,6.378-8.664,11.305-10.422c7.514-2.683,15.649,0.74,23.523,2.029
		c0.788,0.129,1.64,0.227,2.346-0.145c0.949-0.5,1.307-1.657,1.554-2.701c1.411-5.963,2.185-12.273,5.479-17.44
		c5.144-8.069,16.464-11.509,25.227-7.666c8.23,3.609,13.028,12.042,17.847,19.628c0.967,1.522,2.002,3.075,3.52,4.048
		C479.049,150.826,480.466,150.646,481.732,149.899z"/>
	<path style="fill:none;stroke:#263238;stroke-miterlimit:10;" d="M628.762,66.403c1.395-0.823,2.573-2.464,3.911-3.511
		c3.411-2.668,7.587-4.254,11.945-4.165c9.994,0.204,14.074,11.014,15.297,11.422c1.224,0.408,3.875-3.875,8.363-3.06
		c4.487,0.816,5.303,4.487,6.731,5.507c1.428,1.02,5.303-1.836,7.751-1.02c2.448,0.816,2.04,3.467,4.487,3.671
		c2.448,0.204,3.875-1.02,5.711-0.612c1.836,0.408,3.059,2.244,3.059,2.244c-28.359,0-56.717-0.005-85.076,0
		c-20.733,0.004-41.465-0.002-62.198-0.003c2.238-3.782,5.358-7.278,9.497-8.756c6.313-2.254,13.146,0.622,19.761,1.705
		c0.662,0.108,1.378,0.19,1.971-0.122c0.798-0.42,1.098-1.392,1.306-2.269c1.185-5.01,1.836-10.311,4.603-14.652
		c4.321-6.779,13.831-9.668,21.193-6.44c6.914,3.032,10.944,10.117,14.993,16.489c0.812,1.278,1.682,2.584,2.957,3.401
		C626.509,67.182,627.699,67.03,628.762,66.403z"/>
</g>
<g id="Mountains">
	<g>
		<path style="fill:none;stroke:#263238;stroke-miterlimit:10;" d="M723.656,328.104c5.133,4.552,8.055,7.176,8.055,7.176"/>
		<path style="fill:none;stroke:#263238;stroke-miterlimit:10;" d="M564.485,198.859c43.243,28.035,121.619,96.099,153.341,124.088"
			/>
		<path style="fill:none;stroke:#263238;stroke-miterlimit:10;" d="M256.383,219.238c59.079,17.645,143.916,55.32,143.916,55.32
			s114.532-81.496,136.675-87.887c3.471-1.002,10.638,1.962,20.258,7.672"/>
		<path style="fill:none;stroke:#263238;stroke-miterlimit:10;" d="M7.837,311.311c0,0,164.163-95.078,200.049-100.671
			c8.588-1.339,24.086,1.624,42.694,6.907"/>
	</g>
</g>
<g id="Trees">
	<g>
		<path style="fill:#92E3A9;" d="M674.165,193.644c0,36.93-21.846,66.867-48.795,66.867c-26.949,0-48.795-29.937-48.795-66.867
			S598.422,29.79,625.37,29.79C652.319,29.79,674.165,156.714,674.165,193.644z"/>
		<path style="opacity:0.38;fill:#FFFFFF;" d="M674.165,193.644c0,36.93-21.846,66.867-48.795,66.867
			c-26.949,0-48.795-29.937-48.795-66.867S598.422,29.79,625.37,29.79C652.319,29.79,674.165,156.714,674.165,193.644z"/>
		<polygon style="fill:#787878;" points="599.012,196.964 614.575,202.393 622.284,212.873 620.936,244.96 611.965,238.872 
			620.657,251.6 618.014,442.772 629.798,442.772 626.884,227.213 652.73,212.965 637.955,218.43 640.92,209.536 633.856,219.946 
			626.803,222.554 626.3,193.348 651.968,159.246 638.212,173.002 640.539,163.437 633.958,177.256 626.157,185.057 625.37,139.428 
			622.574,205.977 598.25,180.2 611.611,198.363 		"/>
		<g>
			<path style="fill:#FFFFFF;" d="M652.214,139.572c0,0,0.451,4.483-1.999,7.774c-2.45,3.291-6.874,4.144-6.874,4.144
				s-0.451-4.483,1.999-7.774C647.79,140.425,652.214,139.572,652.214,139.572z"/>
			<path style="fill:#FFFFFF;" d="M666.921,160.235c0,0,0.451,4.483-1.999,7.774c-2.451,3.291-6.874,4.144-6.874,4.144
				s-0.451-4.483,1.999-7.774C662.497,161.088,666.921,160.235,666.921,160.235z"/>
			<path style="fill:#FFFFFF;" d="M666.915,200.466c0,0-1.084,4.373-4.499,6.647c-3.415,2.274-7.868,1.588-7.868,1.588
				s1.084-4.373,4.499-6.647C662.462,199.779,666.915,200.466,666.915,200.466z"/>
			<path style="fill:#FFFFFF;" d="M586.146,200.466c0,0,1.084,4.373,4.499,6.647c3.415,2.274,7.868,1.588,7.868,1.588
				s-1.084-4.373-4.499-6.647C590.599,199.779,586.146,200.466,586.146,200.466z"/>
			<path style="fill:#FFFFFF;" d="M649.928,183.766c0,0,0.451,4.483-1.999,7.774c-2.45,3.291-6.874,4.144-6.874,4.144
				s-0.451-4.483,1.999-7.774C645.504,184.619,649.928,183.766,649.928,183.766z"/>
			<path style="fill:#FFFFFF;" d="M646.119,117.094c0,0,0.451,4.483-1.999,7.774c-2.45,3.291-6.875,4.144-6.875,4.144
				s-0.451-4.483,1.999-7.774C641.694,117.947,646.119,117.094,646.119,117.094z"/>
			<path style="fill:#FFFFFF;" d="M637.356,134.238c0,0,0.451,4.483-1.999,7.774c-2.45,3.291-6.875,4.144-6.875,4.144
				s-0.451-4.483,1.999-7.774C632.932,135.091,637.356,134.238,637.356,134.238z"/>
			<path style="fill:#FFFFFF;" d="M658.158,121.756c0,0,0.451,4.483-1.999,7.774c-2.451,3.291-6.875,4.144-6.875,4.144
				s-0.451-4.483,1.999-7.774C653.734,122.608,658.158,121.756,658.158,121.756z"/>
			<path style="fill:#FFFFFF;" d="M590.56,121.756c0,0-0.451,4.483,1.999,7.774c2.451,3.291,6.875,4.144,6.875,4.144
				s0.451-4.483-1.999-7.774C594.984,122.608,590.56,121.756,590.56,121.756z"/>
			<path style="fill:#FFFFFF;" d="M648.023,96.14c0,0,0.451,4.483-1.999,7.774c-2.45,3.291-6.875,4.144-6.875,4.144
				s-0.451-4.483,1.999-7.774C643.599,96.993,648.023,96.14,648.023,96.14z"/>
			<path style="fill:#FFFFFF;" d="M643.717,73.881c0,0,1.563,4.226,0.018,8.027c-1.545,3.801-5.613,5.738-5.613,5.738
				s-1.563-4.226-0.018-8.027C639.649,75.818,643.717,73.881,643.717,73.881z"/>
			<path style="fill:#FFFFFF;" d="M612.861,68.065c0,0,3.991,2.09,5.39,5.948c1.399,3.857-0.324,8.02-0.324,8.02
				s-3.991-2.091-5.39-5.948C611.138,72.228,612.861,68.065,612.861,68.065z"/>
			<path style="fill:#FFFFFF;" d="M627.25,94.682c0,0,2.843,3.495,2.608,7.592c-0.236,4.096-3.461,7.242-3.461,7.242
				s-2.843-3.495-2.608-7.591C624.025,97.828,627.25,94.682,627.25,94.682z"/>
			<path style="fill:#FFFFFF;" d="M626.488,55.059c0,0,2.843,3.495,2.608,7.592c-0.236,4.096-3.461,7.242-3.461,7.242
				s-2.843-3.495-2.608-7.591C623.263,58.206,626.488,55.059,626.488,55.059z"/>
			<path style="fill:#FFFFFF;" d="M594.194,139.572c0,0-0.451,4.483,1.999,7.774c2.451,3.291,6.875,4.144,6.875,4.144
				s0.451-4.483-1.999-7.774C598.618,140.425,594.194,139.572,594.194,139.572z"/>
			<path style="fill:#FFFFFF;" d="M585.812,163.955c0,0-0.451,4.483,1.999,7.774c2.45,3.291,6.875,4.144,6.875,4.144
				s0.451-4.483-1.999-7.774C590.236,164.808,585.812,163.955,585.812,163.955z"/>
			<path style="fill:#FFFFFF;" d="M608.061,172.807c0,0-0.451,4.483,1.999,7.774c2.45,3.291,6.874,4.144,6.874,4.144
				s0.451-4.483-1.999-7.774C612.485,173.66,608.061,172.807,608.061,172.807z"/>
			<path style="fill:#FFFFFF;" d="M614.144,139.022c0,0-1.716,4.166-0.311,8.021c1.405,3.855,5.4,5.939,5.4,5.939
				s1.716-4.166,0.311-8.021C618.139,141.106,614.144,139.022,614.144,139.022z"/>
			<path style="fill:#FFFFFF;" d="M598.389,228.924c0,0,4.505,0.082,7.584-2.63c3.079-2.712,3.566-7.191,3.566-7.191
				s-4.505-0.082-7.584,2.63C598.877,224.445,598.389,228.924,598.389,228.924z"/>
			<path style="fill:#FFFFFF;" d="M641.617,223.996c0,0,1.224,4.336,4.71,6.5c3.486,2.163,7.915,1.335,7.915,1.335
				s-1.224-4.336-4.71-6.5C646.045,223.167,641.617,223.996,641.617,223.996z"/>
			<path style="fill:#FFFFFF;" d="M603.415,117.094c0,0-0.451,4.483,1.999,7.774c2.451,3.291,6.875,4.144,6.875,4.144
				s0.451-4.483-1.999-7.774C607.839,117.947,603.415,117.094,603.415,117.094z"/>
			<path style="fill:#FFFFFF;" d="M603.337,97.283c0,0-0.451,4.483,1.999,7.774c2.45,3.291,6.874,4.144,6.874,4.144
				s0.451-4.483-1.999-7.774C607.762,98.135,603.337,97.283,603.337,97.283z"/>
		</g>
	</g>
	<g>
		<path style="fill:#92E3A9;" d="M155.834,239.841c0,30.082-17.795,54.468-39.746,54.468c-21.952,0-39.747-24.386-39.747-54.468
			s17.795-133.47,39.747-133.47C138.039,106.371,155.834,209.76,155.834,239.841z"/>
		<path style="opacity:0.38;fill:#FFFFFF;" d="M155.834,239.841c0,30.082-17.795,54.468-39.746,54.468
			c-21.952,0-39.747-24.386-39.747-54.468s17.795-133.47,39.747-133.47C138.039,106.371,155.834,209.76,155.834,239.841z"/>
		<polygon style="fill:#787878;" points="94.617,242.545 107.294,246.967 113.574,255.504 112.476,281.641 105.168,276.682 
			112.248,287.05 110.095,442.772 119.694,442.772 117.32,267.185 138.374,255.579 126.339,260.03 128.753,252.786 122.999,261.266 
			117.255,263.39 116.845,239.6 137.753,211.822 126.548,223.027 128.443,215.235 123.083,226.492 116.728,232.847 116.087,195.678 
			113.81,249.887 93.996,228.89 104.88,243.685 		"/>
		<g>
			<path style="fill:#FFFFFF;" d="M137.954,195.796c0,0,0.368,3.652-1.628,6.332c-1.996,2.681-5.6,3.375-5.6,3.375
				s-0.368-3.652,1.628-6.332C134.35,196.49,137.954,195.796,137.954,195.796z"/>
			<path style="fill:#FFFFFF;" d="M149.933,212.627c0,0,0.368,3.652-1.628,6.332c-1.996,2.681-5.6,3.375-5.6,3.375
				s-0.368-3.652,1.628-6.332C146.329,213.322,149.933,212.627,149.933,212.627z"/>
			<path style="fill:#FFFFFF;" d="M149.928,245.398c0,0-0.883,3.562-3.665,5.415c-2.782,1.852-6.409,1.293-6.409,1.293
				s0.883-3.562,3.665-5.415C146.301,244.839,149.928,245.398,149.928,245.398z"/>
			<path style="fill:#FFFFFF;" d="M84.137,245.398c0,0,0.883,3.562,3.665,5.415c2.782,1.852,6.409,1.293,6.409,1.293
				s-0.883-3.562-3.665-5.415C87.764,244.839,84.137,245.398,84.137,245.398z"/>
			<path style="fill:#FFFFFF;" d="M136.092,231.795c0,0,0.368,3.652-1.628,6.332c-1.996,2.681-5.6,3.375-5.6,3.375
				s-0.368-3.652,1.628-6.332C132.488,232.489,136.092,231.795,136.092,231.795z"/>
			<path style="fill:#FFFFFF;" d="M132.988,177.486c0,0,0.368,3.652-1.628,6.332c-1.996,2.681-5.6,3.375-5.6,3.375
				s-0.368-3.652,1.628-6.332C129.384,178.181,132.988,177.486,132.988,177.486z"/>
			<path style="fill:#FFFFFF;" d="M125.851,191.451c0,0,0.368,3.652-1.628,6.332c-1.996,2.681-5.6,3.375-5.6,3.375
				s-0.368-3.652,1.629-6.332C122.247,192.146,125.851,191.451,125.851,191.451z"/>
			<path style="fill:#FFFFFF;" d="M142.795,181.283c0,0,0.368,3.652-1.628,6.332c-1.996,2.681-5.6,3.375-5.6,3.375
				s-0.367-3.651,1.628-6.332C139.192,181.978,142.795,181.283,142.795,181.283z"/>
			<path style="fill:#FFFFFF;" d="M87.732,181.283c0,0-0.368,3.652,1.628,6.332c1.996,2.681,5.6,3.375,5.6,3.375
				s0.368-3.651-1.628-6.332C91.336,181.978,87.732,181.283,87.732,181.283z"/>
			<path style="fill:#FFFFFF;" d="M134.54,160.417c0,0,0.368,3.652-1.628,6.332c-1.996,2.681-5.6,3.376-5.6,3.376
				s-0.368-3.652,1.629-6.333C130.936,161.112,134.54,160.417,134.54,160.417z"/>
			<path style="fill:#FFFFFF;" d="M131.032,142.286c0,0,1.273,3.442,0.015,6.538c-1.258,3.096-4.572,4.674-4.572,4.674
				s-1.273-3.442-0.015-6.538C127.719,143.864,131.032,142.286,131.032,142.286z"/>
			<path style="fill:#FFFFFF;" d="M105.898,137.548c0,0,3.251,1.703,4.391,4.845c1.139,3.142-0.264,6.533-0.264,6.533
				s-3.251-1.703-4.391-4.845C104.494,140.94,105.898,137.548,105.898,137.548z"/>
			<path style="fill:#FFFFFF;" d="M117.618,159.23c0,0,2.316,2.847,2.124,6.184c-0.192,3.337-2.819,5.899-2.819,5.899
				s-2.316-2.847-2.124-6.184S117.618,159.23,117.618,159.23z"/>
			<path style="fill:#FFFFFF;" d="M116.998,126.955c0,0,2.316,2.847,2.124,6.184c-0.192,3.337-2.819,5.899-2.819,5.899
				s-2.316-2.847-2.124-6.184C114.371,129.518,116.998,126.955,116.998,126.955z"/>
			<path style="fill:#FFFFFF;" d="M90.692,195.796c0,0-0.368,3.652,1.629,6.332c1.996,2.681,5.6,3.375,5.6,3.375
				s0.368-3.652-1.628-6.332C94.296,196.49,90.692,195.796,90.692,195.796z"/>
			<path style="fill:#FFFFFF;" d="M83.865,215.657c0,0-0.368,3.652,1.628,6.332c1.996,2.681,5.6,3.375,5.6,3.375
				s0.368-3.652-1.628-6.332C87.468,216.352,83.865,215.657,83.865,215.657z"/>
			<path style="fill:#FFFFFF;" d="M101.988,222.868c0,0-0.368,3.652,1.629,6.332c1.996,2.681,5.6,3.375,5.6,3.375
				s0.368-3.652-1.628-6.333C105.592,223.563,101.988,222.868,101.988,222.868z"/>
			<path style="fill:#FFFFFF;" d="M106.943,195.348c0,0-1.398,3.393-0.253,6.533c1.145,3.14,4.398,4.838,4.398,4.838
				s1.398-3.393,0.253-6.534C110.197,197.045,106.943,195.348,106.943,195.348z"/>
			<path style="fill:#FFFFFF;" d="M94.109,268.579c0,0,3.67,0.067,6.178-2.142c2.508-2.209,2.905-5.858,2.905-5.858
				s-3.67-0.067-6.177,2.142C94.507,264.93,94.109,268.579,94.109,268.579z"/>
			<path style="fill:#FFFFFF;" d="M129.321,264.565c0,0,0.997,3.532,3.837,5.294c2.84,1.762,6.447,1.087,6.447,1.087
				s-0.997-3.532-3.837-5.294C132.928,263.89,129.321,264.565,129.321,264.565z"/>
			<path style="fill:#FFFFFF;" d="M98.203,177.486c0,0-0.367,3.652,1.628,6.332c1.996,2.681,5.6,3.375,5.6,3.375
				s0.368-3.652-1.628-6.332C101.807,178.181,98.203,177.486,98.203,177.486z"/>
			<path style="fill:#FFFFFF;" d="M98.14,161.349c0,0-0.368,3.652,1.629,6.332c1.996,2.681,5.6,3.376,5.6,3.376
				s0.368-3.652-1.628-6.333C101.744,162.043,98.14,161.349,98.14,161.349z"/>
		</g>
	</g>
	<g>
		<path style="fill:#92E3A9;" d="M470.434,221.067c0,32.865-19.441,59.507-43.424,59.507c-23.982,0-43.424-26.642-43.424-59.507
			c0-32.865,19.441-145.818,43.424-145.818C450.993,75.249,470.434,188.203,470.434,221.067z"/>
		<path style="opacity:0.38;fill:#FFFFFF;" d="M470.434,221.067c0,32.865-19.441,59.507-43.424,59.507
			c-23.982,0-43.424-26.642-43.424-59.507c0-32.865,19.441-145.818,43.424-145.818C450.993,75.249,470.434,188.203,470.434,221.067z
			"/>
		<polygon style="fill:#787878;" points="403.553,224.021 417.403,228.853 424.264,238.179 423.064,266.734 415.081,261.316 
			422.816,272.643 420.464,442.772 430.951,442.772 428.357,250.941 451.359,238.261 438.21,243.124 440.848,235.21 
			434.562,244.474 428.286,246.795 427.838,220.804 450.68,190.456 438.439,202.698 440.509,194.185 434.653,206.483 
			427.71,213.426 427.01,172.819 424.522,232.043 402.875,209.103 414.766,225.267 		"/>
		<g>
			<path style="fill:#FFFFFF;" d="M450.9,172.947c0,0,0.402,3.99-1.779,6.918c-2.181,2.929-6.118,3.688-6.118,3.688
				s-0.402-3.989,1.779-6.918C446.962,173.706,450.9,172.947,450.9,172.947z"/>
			<path style="fill:#FFFFFF;" d="M463.987,191.336c0,0,0.402,3.989-1.779,6.918c-2.181,2.929-6.118,3.687-6.118,3.687
				s-0.402-3.989,1.779-6.918C460.05,192.095,463.987,191.336,463.987,191.336z"/>
			<path style="fill:#FFFFFF;" d="M463.982,227.138c0,0-0.965,3.892-4.004,5.916c-3.039,2.024-7.002,1.413-7.002,1.413
				s0.965-3.892,4.004-5.916C460.019,226.527,463.982,227.138,463.982,227.138z"/>
			<path style="fill:#FFFFFF;" d="M392.104,227.138c0,0,0.965,3.892,4.004,5.916c3.039,2.024,7.002,1.413,7.002,1.413
				s-0.965-3.892-4.004-5.916C396.067,226.527,392.104,227.138,392.104,227.138z"/>
			<path style="fill:#FFFFFF;" d="M448.865,212.277c0,0,0.401,3.99-1.779,6.918c-2.181,2.929-6.118,3.688-6.118,3.688
				s-0.401-3.99,1.779-6.918C444.928,213.035,448.865,212.277,448.865,212.277z"/>
			<path style="fill:#FFFFFF;" d="M445.475,152.943c0,0,0.401,3.99-1.779,6.918c-2.181,2.929-6.118,3.688-6.118,3.688
				s-0.402-3.989,1.779-6.918C441.538,153.702,445.475,152.943,445.475,152.943z"/>
			<path style="fill:#FFFFFF;" d="M437.677,168.2c0,0,0.402,3.99-1.779,6.918c-2.181,2.929-6.118,3.688-6.118,3.688
				s-0.402-3.99,1.779-6.918C433.74,168.96,437.677,168.2,437.677,168.2z"/>
			<path style="fill:#FFFFFF;" d="M456.189,157.092c0,0,0.402,3.989-1.779,6.918c-2.181,2.929-6.118,3.688-6.118,3.688
				s-0.402-3.989,1.779-6.918C452.252,157.851,456.189,157.092,456.189,157.092z"/>
			<path style="fill:#FFFFFF;" d="M396.032,157.092c0,0-0.402,3.989,1.779,6.918c2.181,2.929,6.118,3.688,6.118,3.688
				s0.402-3.989-1.779-6.918C399.969,157.851,396.032,157.092,396.032,157.092z"/>
			<path style="fill:#FFFFFF;" d="M447.17,134.296c0,0,0.402,3.99-1.779,6.918c-2.181,2.929-6.118,3.688-6.118,3.688
				s-0.402-3.99,1.779-6.918C443.233,135.055,447.17,134.296,447.17,134.296z"/>
			<path style="fill:#FFFFFF;" d="M443.338,114.487c0,0,1.391,3.761,0.016,7.143c-1.375,3.383-4.995,5.106-4.995,5.106
				s-1.391-3.761-0.016-7.143C439.718,116.211,443.338,114.487,443.338,114.487z"/>
			<path style="fill:#FFFFFF;" d="M415.878,109.311c0,0,3.552,1.86,4.797,5.293c1.245,3.433-0.288,7.137-0.288,7.137
				s-3.552-1.86-4.797-5.293C414.344,113.016,415.878,109.311,415.878,109.311z"/>
			<path style="fill:#FFFFFF;" d="M428.683,132.998c0,0,2.53,3.111,2.321,6.756c-0.21,3.645-3.08,6.445-3.08,6.445
				s-2.53-3.11-2.32-6.756C425.813,135.798,428.683,132.998,428.683,132.998z"/>
			<path style="fill:#FFFFFF;" d="M428.005,97.738c0,0,2.53,3.11,2.321,6.756c-0.21,3.645-3.08,6.445-3.08,6.445
				s-2.53-3.11-2.321-6.756C425.135,100.537,428.005,97.738,428.005,97.738z"/>
			<path style="fill:#FFFFFF;" d="M399.266,172.947c0,0-0.402,3.99,1.779,6.918c2.181,2.929,6.118,3.688,6.118,3.688
				s0.401-3.989-1.779-6.918C403.203,173.706,399.266,172.947,399.266,172.947z"/>
			<path style="fill:#FFFFFF;" d="M391.807,194.646c0,0-0.401,3.99,1.779,6.918c2.181,2.929,6.118,3.688,6.118,3.688
				s0.402-3.99-1.779-6.918C395.744,195.405,391.807,194.646,391.807,194.646z"/>
			<path style="fill:#FFFFFF;" d="M411.606,202.524c0,0-0.402,3.99,1.779,6.918c2.18,2.929,6.118,3.688,6.118,3.688
				s0.402-3.99-1.779-6.918C415.544,203.283,411.606,202.524,411.606,202.524z"/>
			<path style="fill:#FFFFFF;" d="M417.02,172.458c0,0-1.527,3.707-0.276,7.138c1.25,3.43,4.805,5.285,4.805,5.285
				s1.527-3.707,0.277-7.138C420.575,174.312,417.02,172.458,417.02,172.458z"/>
			<path style="fill:#FFFFFF;" d="M402.999,252.463c0,0,4.009,0.073,6.749-2.34c2.74-2.413,3.174-6.4,3.174-6.4
				s-4.009-0.073-6.749,2.34C403.433,248.477,402.999,252.463,402.999,252.463z"/>
			<path style="fill:#FFFFFF;" d="M441.469,248.078c0,0,1.089,3.859,4.192,5.784c3.103,1.925,7.044,1.188,7.044,1.188
				s-1.089-3.859-4.192-5.784C445.41,247.34,441.469,248.078,441.469,248.078z"/>
			<path style="fill:#FFFFFF;" d="M407.472,152.943c0,0-0.401,3.99,1.779,6.918c2.181,2.929,6.118,3.688,6.118,3.688
				s0.402-3.989-1.779-6.918C411.409,153.702,407.472,152.943,407.472,152.943z"/>
			<path style="fill:#FFFFFF;" d="M407.403,135.313c0,0-0.401,3.989,1.779,6.918c2.181,2.929,6.118,3.688,6.118,3.688
				s0.402-3.99-1.779-6.918C411.34,136.072,407.403,135.313,407.403,135.313z"/>
		</g>
	</g>
	<g>
		<path style="fill:#92E3A9;" d="M265.46,273.409c0,25.106-14.852,45.458-33.172,45.458c-18.321,0-33.172-20.352-33.172-45.458
			s14.852-111.393,33.172-111.393C250.609,162.016,265.46,248.303,265.46,273.409z"/>
		<path style="opacity:0.38;fill:#FFFFFF;" d="M265.46,273.409c0,25.106-14.852,45.458-33.172,45.458
			c-18.321,0-33.172-20.352-33.172-45.458s14.852-111.393,33.172-111.393C250.609,162.016,265.46,248.303,265.46,273.409z"/>
		<polygon style="fill:#787878;" points="214.369,275.665 224.949,279.356 230.19,286.481 229.274,308.294 223.175,304.155 
			229.084,312.808 227.287,442.772 235.298,442.772 233.317,296.23 250.888,286.543 240.844,290.258 242.859,284.212 
			238.057,291.289 233.263,293.063 232.92,273.207 250.37,250.024 241.018,259.376 242.6,252.873 238.127,262.268 232.823,267.571 
			232.288,236.551 230.387,281.793 213.851,264.269 222.934,276.617 		"/>
		<g>
			<path style="fill:#FFFFFF;" d="M250.538,236.649c0,0,0.307,3.048-1.359,5.285c-1.666,2.237-4.673,2.817-4.673,2.817
				s-0.307-3.048,1.359-5.285C247.53,237.229,250.538,236.649,250.538,236.649z"/>
			<path style="fill:#FFFFFF;" d="M260.535,250.696c0,0,0.307,3.048-1.359,5.285c-1.666,2.237-4.673,2.817-4.673,2.817
				s-0.307-3.048,1.359-5.285C257.528,251.276,260.535,250.696,260.535,250.696z"/>
			<path style="fill:#FFFFFF;" d="M260.531,278.046c0,0-0.737,2.973-3.059,4.519c-2.322,1.546-5.349,1.079-5.349,1.079
				s0.737-2.973,3.059-4.519C257.504,277.579,260.531,278.046,260.531,278.046z"/>
			<path style="fill:#FFFFFF;" d="M205.623,278.046c0,0,0.737,2.973,3.059,4.519c2.322,1.546,5.349,1.079,5.349,1.079
				s-0.737-2.973-3.059-4.519C208.65,277.579,205.623,278.046,205.623,278.046z"/>
			<path style="fill:#FFFFFF;" d="M248.984,266.693c0,0,0.307,3.048-1.359,5.285c-1.666,2.237-4.674,2.817-4.674,2.817
				s-0.307-3.048,1.359-5.285S248.984,266.693,248.984,266.693z"/>
			<path style="fill:#FFFFFF;" d="M246.393,221.368c0,0,0.307,3.048-1.359,5.285c-1.666,2.237-4.673,2.817-4.673,2.817
				s-0.307-3.048,1.359-5.285C243.386,221.947,246.393,221.368,246.393,221.368z"/>
			<path style="fill:#FFFFFF;" d="M240.436,233.023c0,0,0.307,3.048-1.359,5.285c-1.666,2.237-4.673,2.817-4.673,2.817
				s-0.307-3.048,1.359-5.285C237.429,233.603,240.436,233.023,240.436,233.023z"/>
			<path style="fill:#FFFFFF;" d="M254.578,224.537c0,0,0.307,3.048-1.359,5.285c-1.666,2.237-4.673,2.817-4.673,2.817
				s-0.307-3.048,1.359-5.285C251.571,225.117,254.578,224.537,254.578,224.537z"/>
			<path style="fill:#FFFFFF;" d="M208.624,224.537c0,0-0.307,3.048,1.359,5.285c1.666,2.237,4.673,2.817,4.673,2.817
				s0.307-3.048-1.359-5.285C211.631,225.117,208.624,224.537,208.624,224.537z"/>
			<path style="fill:#FFFFFF;" d="M247.688,207.123c0,0,0.307,3.048-1.359,5.285c-1.666,2.237-4.673,2.817-4.673,2.817
				s-0.307-3.048,1.359-5.285C244.681,207.702,247.688,207.123,247.688,207.123z"/>
			<path style="fill:#FFFFFF;" d="M244.761,191.991c0,0,1.063,2.873,0.012,5.457c-1.05,2.584-3.816,3.901-3.816,3.901
				s-1.063-2.873-0.012-5.457C241.996,193.307,244.761,191.991,244.761,191.991z"/>
			<path style="fill:#FFFFFF;" d="M223.784,188.036c0,0,2.713,1.421,3.664,4.043c0.951,2.622-0.22,5.452-0.22,5.452
				s-2.713-1.421-3.664-4.043C222.613,190.867,223.784,188.036,223.784,188.036z"/>
			<path style="fill:#FFFFFF;" d="M233.566,206.131c0,0,1.933,2.376,1.773,5.161c-0.16,2.785-2.353,4.923-2.353,4.923
				s-1.933-2.376-1.773-5.161C231.374,208.27,233.566,206.131,233.566,206.131z"/>
			<path style="fill:#FFFFFF;" d="M233.048,179.195c0,0,1.933,2.376,1.773,5.161c-0.16,2.785-2.353,4.923-2.353,4.923
				s-1.933-2.376-1.773-5.161S233.048,179.195,233.048,179.195z"/>
			<path style="fill:#FFFFFF;" d="M211.094,236.649c0,0-0.307,3.048,1.359,5.285c1.666,2.237,4.673,2.817,4.673,2.817
				s0.307-3.048-1.359-5.285C214.101,237.229,211.094,236.649,211.094,236.649z"/>
			<path style="fill:#FFFFFF;" d="M205.396,253.225c0,0-0.307,3.048,1.359,5.285c1.666,2.237,4.673,2.817,4.673,2.817
				s0.307-3.048-1.359-5.285C208.403,253.805,205.396,253.225,205.396,253.225z"/>
			<path style="fill:#FFFFFF;" d="M220.521,259.243c0,0-0.307,3.048,1.359,5.285c1.666,2.237,4.673,2.817,4.673,2.817
				s0.307-3.048-1.359-5.285C223.529,259.823,220.521,259.243,220.521,259.243z"/>
			<path style="fill:#FFFFFF;" d="M224.656,236.275c0,0-1.167,2.832-0.211,5.453c0.955,2.621,3.671,4.038,3.671,4.038
				s1.167-2.832,0.212-5.453C227.372,237.692,224.656,236.275,224.656,236.275z"/>
			<path style="fill:#FFFFFF;" d="M213.946,297.392c0,0,3.063,0.056,5.156-1.788c2.093-1.844,2.424-4.889,2.424-4.889
				s-3.062-0.056-5.156,1.788C214.277,294.348,213.946,297.392,213.946,297.392z"/>
			<path style="fill:#FFFFFF;" d="M243.333,294.042c0,0,0.832,2.948,3.202,4.419c2.37,1.471,5.381,0.907,5.381,0.907
				s-0.832-2.948-3.202-4.418C246.344,293.479,243.333,294.042,243.333,294.042z"/>
			<path style="fill:#FFFFFF;" d="M217.362,221.368c0,0-0.307,3.048,1.359,5.285c1.666,2.237,4.673,2.817,4.673,2.817
				s0.307-3.048-1.359-5.285C220.37,221.947,217.362,221.368,217.362,221.368z"/>
			<path style="fill:#FFFFFF;" d="M217.31,207.9c0,0-0.307,3.048,1.359,5.285c1.666,2.237,4.674,2.817,4.674,2.817
				s0.307-3.048-1.359-5.285C220.317,208.479,217.31,207.9,217.31,207.9z"/>
		</g>
	</g>
</g>
<g id="Plants">
	<g>
		<g>
			<g>
				<g>
					<path style="fill:#787878;" d="M664.399,427.573c-8.263,1.935-15.169,7.729-18.602,15.405h0.47
						c3.406-7.467,10.162-13.096,18.231-14.986c0.116-0.027,0.187-0.143,0.16-0.258C664.63,427.618,664.514,427.546,664.399,427.573
						z"/>
				</g>
				<g>
					<g>
						<path style="fill:#787878;" d="M652.102,440.109c-2.028-1.678-5.239,1.105-5.189,1.203c-0.227,0.391-0.445,0.789-0.654,1.194
							c0.446-0.411,1.917-0.644,3.852-0.212C652.045,442.652,654.092,441.636,652.102,440.109z"/>
					</g>
					<g>
						<path style="fill:#787878;" d="M646.028,435.54c-2.048-1.574-3.049,1.842-1.712,3.435c1.257,1.604,1.936,2.912,1.908,3.514
							c0.181-0.419,0.372-0.832,0.573-1.239C646.696,441.237,647.912,437.102,646.028,435.54z"/>
					</g>
				</g>
				<g>
					<g>
						<path style="fill:#787878;" d="M654.704,437.2c-1.719-1.989-5.324,0.178-5.291,0.278c-0.286,0.341-0.565,0.691-0.835,1.048
							c0.504-0.321,1.986-0.29,3.815,0.469C654.233,439.684,656.409,439.04,654.704,437.2z"/>
					</g>
					<g>
						<path style="fill:#787878;" d="M649.485,431.675c-1.755-1.894-3.296,1.282-2.241,3.068c0.974,1.786,1.427,3.179,1.303,3.76
							c0.245-0.375,0.5-0.744,0.763-1.106C649.212,437.372,651.078,433.535,649.485,431.675z"/>
					</g>
				</g>
				<g>
					<g>
						<path style="fill:#787878;" d="M657.743,434.778c-1.365-2.246-5.268-0.722-5.25-0.621c-0.337,0.286-0.668,0.582-0.991,0.885
							c0.548-0.228,1.998,0.056,3.672,1.113C656.867,437.146,659.116,436.878,657.743,434.778z"/>
					</g>
					<g>
						<path style="fill:#787878;" d="M653.522,428.458c-1.415-2.159-3.457,0.709-2.712,2.642c0.664,1.921,0.881,3.367,0.664,3.915
							c0.302-0.326,0.613-0.644,0.931-0.955C652.311,434.022,654.78,430.561,653.522,428.458z"/>
					</g>
				</g>
				<g>
					<g>
						<path style="fill:#787878;" d="M661.15,432.895c-0.971-2.443-5.082-1.588-5.078-1.487c-0.38,0.226-0.755,0.461-1.124,0.706
							c0.577-0.133,1.958,0.39,3.432,1.712C659.883,435.087,662.15,435.196,661.15,432.895z"/>
					</g>
					<g>
						<path style="fill:#787878;" d="M658.047,425.957c-1.035-2.366-3.537,0.126-3.124,2.156c0.333,2.006,0.307,3.467,0.003,3.97
							c0.352-0.27,0.71-0.532,1.075-0.785C655.912,431.246,658.931,428.242,658.047,425.957z"/>
					</g>
				</g>
				<g>
					<g>
						<path style="fill:#787878;" d="M664.855,431.602c-0.548-2.573-4.777-2.411-4.786-2.31c-0.415,0.16-0.825,0.33-1.231,0.51
							c0.592-0.035,1.871,0.71,3.105,2.259C663.215,433.555,665.451,434.039,664.855,431.602z"/>
					</g>
					<g>
						<path style="fill:#787878;" d="M662.969,424.239c-0.622-2.507-3.54-0.463-3.475,1.609c-0.013,2.035-0.287,3.473-0.673,3.919
							c0.393-0.208,0.792-0.407,1.197-0.596C659.935,429.105,663.449,426.64,662.969,424.239z"/>
					</g>
				</g>
				<g>
					<path style="fill:#787878;" d="M662.47,428.316c-0.061-0.035,3.13-2.182,5.209-2.52c2.032-0.392,2.807,1.04,2.472,1.879
						c-0.323,0.849-1.75,1.064-2.959,0.993C666.003,428.501,662.487,428.254,662.47,428.316z"/>
					<path style="fill:#787878;" d="M662.415,428.449c-0.006-0.003-0.011-0.005-0.017-0.008c-0.053-0.03-0.081-0.092-0.071-0.152
						c0.001-0.004,0.002-0.009,0.005-0.013c0.011-0.039,0.02-0.068,0.072-0.087c0.513-0.492,3.465-2.243,5.251-2.534
						c1-0.194,1.857,0.034,2.346,0.627c0.352,0.426,0.463,0.994,0.282,1.447c-0.437,1.148-2.484,1.119-3.1,1.083
						c-1.16-0.162-4.36-0.385-4.666-0.359C662.484,428.463,662.448,428.462,662.415,428.449z M669.169,426.021
						c-0.339-0.139-0.812-0.21-1.463-0.084c-1.64,0.267-3.953,1.659-4.803,2.231c0.301,0.012,0.769,0.043,1.499,0.096
						c0.941,0.068,2.173,0.173,2.81,0.262c1.158,0.068,2.512-0.132,2.805-0.902c0.143-0.359,0.051-0.813-0.236-1.16
						C669.664,426.323,669.47,426.145,669.169,426.021z"/>
				</g>
			</g>
			<g>
				<g>
					<path style="fill:#787878;" d="M643.982,442.978c-3.274-7.635-2.839-16.534,1.314-23.815c0.059-0.103,0.023-0.235-0.08-0.293
						c-0.103-0.059-0.235-0.023-0.293,0.08c-4.189,7.344-4.656,16.308-1.409,24.028H643.982z"/>
				</g>
				<g>
					<g>
						<path style="fill:#787878;" d="M645.739,436.492c-2.609,0.344-2.755,4.59-2.65,4.621c0.132,0.432,0.275,0.863,0.43,1.291
							c0.002-0.607,0.833-1.843,2.466-2.967C647.564,438.264,648.212,436.072,645.739,436.492z"/>
					</g>
					<g>
						<path style="fill:#787878;" d="M638.258,437.832c-2.547,0.429-0.725,3.488,1.352,3.592c2.031,0.171,3.451,0.563,3.874,0.993
							c-0.184-0.417-0.356-0.839-0.518-1.263C642.888,441.22,640.684,437.515,638.258,437.832z"/>
					</g>
				</g>
				<g>
					<g>
						<path style="fill:#787878;" d="M645.378,432.605c-2.628-0.094-3.493,4.023-3.397,4.066c0.055,0.442,0.122,0.884,0.199,1.325
							c0.108-0.588,1.139-1.652,2.94-2.476C646.878,434.641,647.887,432.608,645.378,432.605z"/>
					</g>
					<g>
						<path style="fill:#787878;" d="M637.778,432.67c-2.582-0.003-1.303,3.287,0.723,3.73c1.971,0.502,3.301,1.118,3.642,1.604
							c-0.108-0.435-0.205-0.873-0.291-1.312C641.767,436.746,640.225,432.767,637.778,432.67z"/>
					</g>
				</g>
				<g>
					<g>
						<path style="fill:#787878;" d="M645.671,428.73c-2.574-0.529-4.114,3.369-4.028,3.424c-0.02,0.442-0.029,0.885-0.026,1.329
							c0.206-0.556,1.401-1.426,3.314-1.933C646.811,430.983,648.145,429.153,645.671,428.73z"/>
					</g>
					<g>
						<path style="fill:#787878;" d="M638.168,427.522c-2.545-0.433-1.833,3.015,0.09,3.785c1.859,0.821,3.067,1.645,3.321,2.177
							c-0.033-0.443-0.055-0.887-0.066-1.332C641.421,432.196,640.565,428.031,638.168,427.522z"/>
					</g>
				</g>
				<g>
					<g>
						<path style="fill:#787878;" d="M646.61,424.952c-2.451-0.951-4.622,2.643-4.545,2.709c-0.093,0.432-0.176,0.867-0.247,1.304
							c0.296-0.513,1.619-1.169,3.59-1.349C647.354,427.372,648.977,425.785,646.61,424.952z"/>
					</g>
					<g>
						<path style="fill:#787878;" d="M639.415,422.504c-2.438-0.852-2.314,2.677-0.546,3.756c1.696,1.121,2.749,2.134,2.911,2.7
							c0.041-0.441,0.094-0.882,0.157-1.322C641.838,427.668,641.691,423.411,639.415,422.504z"/>
					</g>
				</g>
				<g>
					<g>
						<path style="fill:#787878;" d="M648.184,421.357c-2.258-1.349-5.017,1.859-4.95,1.935c-0.165,0.413-0.32,0.829-0.464,1.25
							c0.378-0.458,1.793-0.887,3.768-0.737C648.499,423.888,650.375,422.579,648.184,421.357z"/>
					</g>
					<g>
						<path style="fill:#787878;" d="M641.506,417.729c-2.26-1.25-2.748,2.279-1.186,3.641c1.482,1.395,2.35,2.574,2.414,3.16
							c0.115-0.43,0.241-0.857,0.378-1.283C643.006,423.263,643.592,419.011,641.506,417.729z"/>
					</g>
				</g>
				<g>
					<path style="fill:#787878;" d="M644.153,420.869c-0.067,0.021,0.531-3.779,1.698-5.532c1.095-1.756,2.672-1.349,3.059-0.533
						c0.402,0.815-0.411,2.006-1.286,2.843C646.693,418.406,644.12,420.814,644.153,420.869z"/>
					<path style="fill:#787878;" d="M644.214,420.999c-0.006,0.003-0.012,0.005-0.018,0.007c-0.058,0.018-0.123-0.003-0.159-0.052
						c-0.003-0.003-0.005-0.008-0.007-0.012c-0.021-0.034-0.036-0.061-0.015-0.112c-0.012-0.711,0.715-4.065,1.717-5.572
						c0.539-0.865,1.289-1.337,2.056-1.293c0.552,0.032,1.044,0.337,1.252,0.778c0.544,1.102-0.87,2.581-1.317,3.008
						c-0.908,0.739-3.249,2.933-3.438,3.174C644.271,420.958,644.245,420.984,644.214,420.999z M647.03,414.399
						c-0.332,0.153-0.707,0.452-1.057,1.014c-0.92,1.383-1.475,4.026-1.634,5.038c0.214-0.213,0.555-0.534,1.09-1.033
						c0.69-0.643,1.605-1.474,2.104-1.88c0.838-0.802,1.612-1.931,1.248-2.669c-0.165-0.35-0.562-0.591-1.011-0.617
						C647.589,414.241,647.326,414.262,647.03,414.399z"/>
				</g>
			</g>
		</g>
		<g>
			<g>
				<g>
					<path style="fill:#787878;" d="M89.693,427.573c-8.263,1.935-15.169,7.729-18.603,15.405h0.47
						c3.406-7.467,10.162-13.096,18.231-14.986c0.116-0.027,0.187-0.143,0.16-0.258C89.924,427.618,89.808,427.546,89.693,427.573z"
						/>
				</g>
				<g>
					<g>
						<path style="fill:#787878;" d="M77.396,440.109c-2.028-1.678-5.239,1.105-5.189,1.203c-0.227,0.391-0.445,0.789-0.653,1.194
							c0.446-0.411,1.917-0.644,3.852-0.212C77.339,442.652,79.386,441.636,77.396,440.109z"/>
					</g>
					<g>
						<path style="fill:#787878;" d="M71.322,435.54c-2.048-1.574-3.049,1.842-1.712,3.435c1.257,1.604,1.936,2.912,1.908,3.514
							c0.181-0.419,0.372-0.832,0.573-1.239C71.991,441.237,73.206,437.102,71.322,435.54z"/>
					</g>
				</g>
				<g>
					<g>
						<path style="fill:#787878;" d="M79.998,437.2c-1.719-1.989-5.324,0.178-5.291,0.278c-0.286,0.341-0.565,0.691-0.835,1.048
							c0.504-0.321,1.986-0.29,3.815,0.469C79.527,439.684,81.703,439.04,79.998,437.2z"/>
					</g>
					<g>
						<path style="fill:#787878;" d="M74.779,431.675c-1.755-1.894-3.296,1.282-2.241,3.068c0.974,1.786,1.427,3.179,1.303,3.76
							c0.245-0.375,0.5-0.744,0.763-1.106C74.506,437.372,76.372,433.535,74.779,431.675z"/>
					</g>
				</g>
				<g>
					<g>
						<path style="fill:#787878;" d="M83.037,434.778c-1.365-2.246-5.269-0.722-5.25-0.621c-0.337,0.286-0.668,0.582-0.991,0.885
							c0.548-0.228,1.998,0.056,3.672,1.113C82.161,437.146,84.41,436.878,83.037,434.778z"/>
					</g>
					<g>
						<path style="fill:#787878;" d="M78.816,428.458c-1.415-2.159-3.457,0.709-2.712,2.642c0.664,1.921,0.882,3.367,0.665,3.915
							c0.302-0.326,0.613-0.644,0.931-0.955C77.605,434.022,80.074,430.561,78.816,428.458z"/>
					</g>
				</g>
				<g>
					<g>
						<path style="fill:#787878;" d="M86.444,432.895c-0.972-2.443-5.082-1.588-5.078-1.487c-0.38,0.226-0.755,0.461-1.124,0.706
							c0.577-0.133,1.958,0.39,3.432,1.712C85.177,435.087,87.444,435.196,86.444,432.895z"/>
					</g>
					<g>
						<path style="fill:#787878;" d="M83.342,425.957c-1.035-2.366-3.537,0.126-3.124,2.156c0.333,2.006,0.307,3.467,0.003,3.97
							c0.352-0.27,0.71-0.532,1.075-0.785C81.206,431.246,84.226,428.242,83.342,425.957z"/>
					</g>
				</g>
				<g>
					<g>
						<path style="fill:#787878;" d="M90.149,431.602c-0.548-2.573-4.777-2.411-4.786-2.31c-0.415,0.16-0.825,0.33-1.231,0.51
							c0.592-0.035,1.871,0.71,3.105,2.259C88.509,433.555,90.745,434.039,90.149,431.602z"/>
					</g>
					<g>
						<path style="fill:#787878;" d="M88.263,424.239c-0.622-2.507-3.54-0.463-3.475,1.609c-0.013,2.035-0.287,3.473-0.673,3.919
							c0.393-0.208,0.792-0.407,1.197-0.596C85.229,429.105,88.743,426.64,88.263,424.239z"/>
					</g>
				</g>
				<g>
					<path style="fill:#787878;" d="M87.764,428.316c-0.061-0.035,3.13-2.182,5.209-2.52c2.032-0.392,2.807,1.04,2.472,1.879
						c-0.323,0.849-1.75,1.064-2.959,0.993C91.297,428.501,87.781,428.254,87.764,428.316z"/>
					<path style="fill:#787878;" d="M87.709,428.449c-0.006-0.003-0.011-0.005-0.017-0.008c-0.053-0.03-0.081-0.092-0.07-0.152
						c0.001-0.004,0.002-0.009,0.005-0.013c0.011-0.039,0.02-0.068,0.072-0.087c0.513-0.492,3.465-2.243,5.251-2.534
						c1-0.194,1.857,0.034,2.346,0.627c0.352,0.426,0.463,0.994,0.282,1.447c-0.437,1.148-2.484,1.119-3.1,1.083
						c-1.16-0.162-4.36-0.385-4.666-0.359C87.779,428.463,87.742,428.462,87.709,428.449z M94.463,426.021
						c-0.339-0.139-0.812-0.21-1.463-0.084c-1.64,0.267-3.953,1.659-4.803,2.231c0.301,0.012,0.769,0.043,1.499,0.096
						c0.941,0.068,2.173,0.173,2.81,0.262c1.158,0.068,2.512-0.132,2.805-0.902c0.144-0.359,0.051-0.813-0.236-1.16
						C94.959,426.323,94.764,426.145,94.463,426.021z"/>
				</g>
			</g>
			<g>
				<g>
					<path style="fill:#787878;" d="M69.276,442.978c-3.274-7.635-2.839-16.534,1.314-23.815c0.059-0.103,0.023-0.235-0.08-0.293
						c-0.103-0.059-0.235-0.023-0.293,0.08c-4.189,7.344-4.656,16.308-1.409,24.028H69.276z"/>
				</g>
				<g>
					<g>
						<path style="fill:#787878;" d="M71.033,436.492c-2.609,0.344-2.755,4.59-2.65,4.621c0.132,0.432,0.275,0.863,0.43,1.291
							c0.002-0.607,0.832-1.843,2.466-2.967C72.858,438.264,73.506,436.072,71.033,436.492z"/>
					</g>
					<g>
						<path style="fill:#787878;" d="M63.552,437.832c-2.547,0.429-0.725,3.488,1.352,3.592c2.031,0.171,3.451,0.563,3.874,0.993
							c-0.184-0.417-0.356-0.839-0.518-1.263C68.182,441.22,65.978,437.515,63.552,437.832z"/>
					</g>
				</g>
				<g>
					<g>
						<path style="fill:#787878;" d="M70.672,432.605c-2.628-0.094-3.493,4.023-3.397,4.066c0.055,0.442,0.122,0.884,0.2,1.325
							c0.108-0.588,1.139-1.652,2.94-2.476C72.172,434.641,73.181,432.608,70.672,432.605z"/>
					</g>
					<g>
						<path style="fill:#787878;" d="M63.072,432.67c-2.582-0.003-1.303,3.287,0.723,3.73c1.971,0.502,3.301,1.118,3.642,1.604
							c-0.108-0.435-0.205-0.873-0.291-1.312C67.061,436.746,65.52,432.767,63.072,432.67z"/>
					</g>
				</g>
				<g>
					<g>
						<path style="fill:#787878;" d="M70.965,428.73c-2.575-0.529-4.114,3.369-4.028,3.424c-0.02,0.442-0.029,0.885-0.026,1.329
							c0.205-0.556,1.401-1.426,3.314-1.933C72.105,430.983,73.439,429.153,70.965,428.73z"/>
					</g>
					<g>
						<path style="fill:#787878;" d="M63.462,427.522c-2.545-0.433-1.833,3.015,0.09,3.785c1.86,0.821,3.067,1.645,3.321,2.177
							c-0.033-0.443-0.055-0.887-0.066-1.332C66.715,432.196,65.859,428.031,63.462,427.522z"/>
					</g>
				</g>
				<g>
					<g>
						<path style="fill:#787878;" d="M71.904,424.952c-2.451-0.951-4.622,2.643-4.545,2.709c-0.093,0.432-0.176,0.867-0.247,1.304
							c0.295-0.513,1.619-1.169,3.59-1.349C72.649,427.372,74.271,425.785,71.904,424.952z"/>
					</g>
					<g>
						<path style="fill:#787878;" d="M64.709,422.504c-2.437-0.852-2.314,2.677-0.546,3.756c1.696,1.121,2.749,2.134,2.911,2.7
							c0.041-0.441,0.094-0.882,0.157-1.322C67.132,427.668,66.985,423.411,64.709,422.504z"/>
					</g>
				</g>
				<g>
					<g>
						<path style="fill:#787878;" d="M73.478,421.357c-2.258-1.349-5.017,1.859-4.95,1.935c-0.165,0.413-0.32,0.829-0.464,1.25
							c0.378-0.458,1.793-0.887,3.768-0.737C73.793,423.888,75.669,422.579,73.478,421.357z"/>
					</g>
					<g>
						<path style="fill:#787878;" d="M66.8,417.729c-2.26-1.25-2.749,2.279-1.186,3.641c1.482,1.395,2.35,2.574,2.414,3.16
							c0.115-0.43,0.241-0.857,0.378-1.283C68.3,423.263,68.886,419.011,66.8,417.729z"/>
					</g>
				</g>
				<g>
					<path style="fill:#787878;" d="M69.448,420.869c-0.067,0.021,0.531-3.779,1.698-5.532c1.095-1.756,2.673-1.349,3.059-0.533
						c0.402,0.815-0.411,2.006-1.286,2.843C71.988,418.406,69.414,420.814,69.448,420.869z"/>
					<path style="fill:#787878;" d="M69.508,420.999c-0.006,0.003-0.012,0.005-0.018,0.007c-0.058,0.018-0.123-0.003-0.159-0.052
						c-0.002-0.003-0.005-0.008-0.007-0.012c-0.021-0.034-0.036-0.061-0.015-0.112c-0.012-0.711,0.715-4.065,1.717-5.572
						c0.539-0.865,1.289-1.337,2.056-1.293c0.552,0.032,1.044,0.337,1.252,0.778c0.544,1.102-0.87,2.581-1.316,3.008
						c-0.908,0.739-3.249,2.933-3.438,3.174C69.565,420.958,69.54,420.984,69.508,420.999z M72.324,414.399
						c-0.332,0.153-0.707,0.452-1.057,1.014c-0.92,1.383-1.475,4.026-1.634,5.038c0.214-0.213,0.555-0.534,1.09-1.033
						c0.69-0.643,1.605-1.474,2.104-1.88c0.838-0.802,1.612-1.931,1.248-2.669c-0.165-0.35-0.562-0.591-1.011-0.617
						C72.883,414.241,72.62,414.262,72.324,414.399z"/>
				</g>
			</g>
		</g>
		<g>
			<g>
				<g>
					<g>
						<path style="fill:#787878;" d="M407.397,427.573c-8.263,1.935-15.169,7.729-18.603,15.405h0.47
							c3.406-7.467,10.162-13.096,18.231-14.986c0.116-0.027,0.187-0.143,0.16-0.258
							C407.629,427.618,407.512,427.546,407.397,427.573z"/>
					</g>
					<g>
						<g>
							<path style="fill:#787878;" d="M395.1,440.109c-2.028-1.678-5.239,1.105-5.189,1.203c-0.227,0.391-0.445,0.789-0.654,1.194
								c0.446-0.411,1.917-0.644,3.852-0.212C395.043,442.652,397.091,441.636,395.1,440.109z"/>
						</g>
						<g>
							<path style="fill:#787878;" d="M389.026,435.54c-2.048-1.574-3.049,1.842-1.712,3.435c1.257,1.604,1.936,2.912,1.908,3.514
								c0.181-0.419,0.372-0.832,0.573-1.239C389.695,441.237,390.91,437.102,389.026,435.54z"/>
						</g>
					</g>
					<g>
						<g>
							<path style="fill:#787878;" d="M397.702,437.2c-1.719-1.989-5.324,0.178-5.291,0.278c-0.286,0.341-0.565,0.691-0.835,1.048
								c0.504-0.321,1.986-0.29,3.815,0.469C397.231,439.684,399.408,439.04,397.702,437.2z"/>
						</g>
						<g>
							<path style="fill:#787878;" d="M392.483,431.675c-1.755-1.894-3.296,1.282-2.241,3.068c0.974,1.786,1.428,3.179,1.303,3.76
								c0.245-0.375,0.5-0.744,0.763-1.106C392.21,437.372,394.077,433.535,392.483,431.675z"/>
						</g>
					</g>
					<g>
						<g>
							<path style="fill:#787878;" d="M400.741,434.778c-1.365-2.246-5.268-0.722-5.25-0.621c-0.337,0.286-0.668,0.582-0.991,0.885
								c0.548-0.228,1.998,0.056,3.672,1.113C399.865,437.146,402.114,436.878,400.741,434.778z"/>
						</g>
						<g>
							<path style="fill:#787878;" d="M396.52,428.458c-1.415-2.159-3.457,0.709-2.712,2.642c0.664,1.921,0.882,3.367,0.665,3.915
								c0.302-0.326,0.613-0.644,0.931-0.955C395.309,434.022,397.778,430.561,396.52,428.458z"/>
						</g>
					</g>
					<g>
						<g>
							<path style="fill:#787878;" d="M404.148,432.895c-0.971-2.443-5.082-1.588-5.078-1.487c-0.38,0.226-0.755,0.461-1.124,0.706
								c0.577-0.133,1.958,0.39,3.432,1.712C402.881,435.087,405.148,435.196,404.148,432.895z"/>
						</g>
						<g>
							<path style="fill:#787878;" d="M401.046,425.957c-1.035-2.366-3.537,0.126-3.124,2.156c0.333,2.006,0.307,3.467,0.003,3.97
								c0.352-0.27,0.71-0.532,1.075-0.785C398.91,431.246,401.93,428.242,401.046,425.957z"/>
						</g>
					</g>
					<g>
						<g>
							<path style="fill:#787878;" d="M407.853,431.602c-0.548-2.573-4.777-2.411-4.786-2.31c-0.415,0.16-0.825,0.33-1.231,0.51
								c0.592-0.035,1.871,0.71,3.105,2.259C406.214,433.555,408.449,434.039,407.853,431.602z"/>
						</g>
						<g>
							<path style="fill:#787878;" d="M405.968,424.239c-0.622-2.507-3.54-0.463-3.475,1.609c-0.013,2.035-0.287,3.473-0.673,3.919
								c0.393-0.208,0.792-0.407,1.197-0.596C402.933,429.105,406.447,426.64,405.968,424.239z"/>
						</g>
					</g>
					<g>
						<path style="fill:#787878;" d="M405.468,428.316c-0.061-0.035,3.13-2.182,5.209-2.52c2.032-0.392,2.807,1.04,2.472,1.879
							c-0.323,0.849-1.75,1.064-2.959,0.993C409.001,428.501,405.485,428.254,405.468,428.316z"/>
						<path style="fill:#787878;" d="M405.413,428.449c-0.006-0.003-0.011-0.005-0.017-0.008c-0.053-0.03-0.081-0.092-0.07-0.152
							c0.001-0.004,0.002-0.009,0.005-0.013c0.011-0.039,0.02-0.068,0.072-0.087c0.513-0.492,3.465-2.243,5.251-2.534
							c1-0.194,1.857,0.034,2.346,0.627c0.352,0.426,0.463,0.994,0.282,1.447c-0.437,1.148-2.484,1.119-3.1,1.083
							c-1.159-0.162-4.36-0.385-4.666-0.359C405.483,428.463,405.446,428.462,405.413,428.449z M412.167,426.021
							c-0.339-0.139-0.812-0.21-1.463-0.084c-1.64,0.267-3.953,1.659-4.803,2.231c0.301,0.012,0.769,0.043,1.499,0.096
							c0.941,0.068,2.173,0.173,2.81,0.262c1.158,0.068,2.512-0.132,2.805-0.902c0.144-0.359,0.051-0.813-0.236-1.16
							C412.663,426.323,412.469,426.145,412.167,426.021z"/>
					</g>
				</g>
				<g>
					<g>
						<path style="fill:#787878;" d="M386.98,442.978c-3.274-7.635-2.839-16.534,1.314-23.815c0.059-0.103,0.023-0.235-0.08-0.293
							c-0.103-0.059-0.235-0.023-0.293,0.08c-4.189,7.344-4.656,16.308-1.409,24.028H386.98z"/>
					</g>
					<g>
						<g>
							<path style="fill:#787878;" d="M388.737,436.492c-2.609,0.344-2.755,4.59-2.65,4.621c0.132,0.432,0.275,0.863,0.43,1.291
								c0.002-0.607,0.833-1.843,2.466-2.967C390.562,438.264,391.21,436.072,388.737,436.492z"/>
						</g>
						<g>
							<path style="fill:#787878;" d="M381.256,437.832c-2.547,0.429-0.725,3.488,1.352,3.592c2.031,0.171,3.451,0.563,3.874,0.993
								c-0.184-0.417-0.356-0.839-0.518-1.263C385.886,441.22,383.682,437.515,381.256,437.832z"/>
						</g>
					</g>
					<g>
						<g>
							<path style="fill:#787878;" d="M388.376,432.605c-2.628-0.094-3.493,4.023-3.397,4.066c0.055,0.442,0.122,0.884,0.199,1.325
								c0.108-0.588,1.139-1.652,2.94-2.476C389.876,434.641,390.885,432.608,388.376,432.605z"/>
						</g>
						<g>
							<path style="fill:#787878;" d="M380.776,432.67c-2.582-0.003-1.303,3.287,0.723,3.73c1.971,0.502,3.301,1.118,3.642,1.604
								c-0.108-0.435-0.205-0.873-0.291-1.312C384.765,436.746,383.224,432.767,380.776,432.67z"/>
						</g>
					</g>
					<g>
						<g>
							<path style="fill:#787878;" d="M388.669,428.73c-2.574-0.529-4.114,3.369-4.028,3.424c-0.02,0.442-0.029,0.885-0.026,1.329
								c0.206-0.556,1.401-1.426,3.314-1.933C389.809,430.983,391.143,429.153,388.669,428.73z"/>
						</g>
						<g>
							<path style="fill:#787878;" d="M381.167,427.522c-2.545-0.433-1.833,3.015,0.09,3.785c1.859,0.821,3.067,1.645,3.321,2.177
								c-0.033-0.443-0.055-0.887-0.066-1.332C384.419,432.196,383.563,428.031,381.167,427.522z"/>
						</g>
					</g>
					<g>
						<g>
							<path style="fill:#787878;" d="M389.608,424.952c-2.451-0.951-4.622,2.643-4.545,2.709c-0.093,0.432-0.176,0.867-0.247,1.304
								c0.296-0.513,1.619-1.169,3.59-1.349C390.353,427.372,391.975,425.785,389.608,424.952z"/>
						</g>
						<g>
							<path style="fill:#787878;" d="M382.413,422.504c-2.438-0.852-2.314,2.677-0.546,3.756c1.696,1.121,2.749,2.134,2.911,2.7
								c0.041-0.441,0.094-0.882,0.157-1.322C384.836,427.668,384.689,423.411,382.413,422.504z"/>
						</g>
					</g>
					<g>
						<g>
							<path style="fill:#787878;" d="M391.182,421.357c-2.258-1.349-5.017,1.859-4.95,1.935c-0.165,0.413-0.32,0.829-0.464,1.25
								c0.378-0.458,1.793-0.887,3.768-0.737C391.497,423.888,393.373,422.579,391.182,421.357z"/>
						</g>
						<g>
							<path style="fill:#787878;" d="M384.504,417.729c-2.26-1.25-2.748,2.279-1.186,3.641c1.482,1.395,2.35,2.574,2.414,3.16
								c0.115-0.43,0.241-0.857,0.378-1.283C386.004,423.263,386.59,419.011,384.504,417.729z"/>
						</g>
					</g>
					<g>
						<path style="fill:#787878;" d="M387.152,420.869c-0.067,0.021,0.532-3.779,1.698-5.532c1.095-1.756,2.673-1.349,3.059-0.533
							c0.402,0.815-0.411,2.006-1.286,2.843C389.692,418.406,387.118,420.814,387.152,420.869z"/>
						<path style="fill:#787878;" d="M387.212,420.999c-0.006,0.003-0.012,0.005-0.018,0.007c-0.058,0.018-0.123-0.003-0.159-0.052
							c-0.003-0.003-0.005-0.008-0.007-0.012c-0.021-0.034-0.036-0.061-0.015-0.112c-0.012-0.711,0.714-4.065,1.717-5.572
							c0.539-0.865,1.289-1.337,2.056-1.293c0.552,0.032,1.044,0.337,1.252,0.778c0.544,1.102-0.87,2.581-1.316,3.008
							c-0.908,0.739-3.249,2.933-3.439,3.174C387.269,420.958,387.244,420.984,387.212,420.999z M390.028,414.399
							c-0.332,0.153-0.707,0.452-1.057,1.014c-0.92,1.383-1.475,4.026-1.634,5.038c0.214-0.213,0.555-0.534,1.09-1.033
							c0.69-0.643,1.605-1.474,2.104-1.88c0.838-0.802,1.612-1.931,1.248-2.669c-0.165-0.35-0.562-0.591-1.011-0.617
							C390.587,414.241,390.324,414.262,390.028,414.399z"/>
					</g>
				</g>
			</g>
			<g>
				<g>
					<g>
						<path style="fill:#787878;" d="M352.515,427.573c8.263,1.935,15.169,7.729,18.602,15.405h-0.47
							c-3.406-7.467-10.162-13.096-18.231-14.986c-0.116-0.027-0.187-0.143-0.16-0.258
							C352.284,427.618,352.4,427.546,352.515,427.573z"/>
					</g>
					<g>
						<g>
							<path style="fill:#787878;" d="M364.813,440.109c2.028-1.678,5.239,1.105,5.189,1.203c0.227,0.391,0.445,0.789,0.653,1.194
								c-0.446-0.411-1.917-0.644-3.852-0.212C364.869,442.652,362.822,441.636,364.813,440.109z"/>
						</g>
						<g>
							<path style="fill:#787878;" d="M370.886,435.54c2.048-1.574,3.049,1.842,1.712,3.435c-1.257,1.604-1.936,2.912-1.908,3.514
								c-0.181-0.419-0.372-0.832-0.573-1.239C370.218,441.237,369.002,437.102,370.886,435.54z"/>
						</g>
					</g>
					<g>
						<g>
							<path style="fill:#787878;" d="M362.211,437.2c1.719-1.989,5.324,0.178,5.291,0.278c0.286,0.341,0.565,0.691,0.835,1.048
								c-0.504-0.321-1.986-0.29-3.815,0.469C362.681,439.684,360.505,439.04,362.211,437.2z"/>
						</g>
						<g>
							<path style="fill:#787878;" d="M367.429,431.675c1.755-1.894,3.296,1.282,2.241,3.068c-0.974,1.786-1.428,3.179-1.303,3.76
								c-0.245-0.375-0.5-0.744-0.763-1.106C367.702,437.372,365.836,433.535,367.429,431.675z"/>
						</g>
					</g>
					<g>
						<g>
							<path style="fill:#787878;" d="M359.171,434.778c1.365-2.246,5.269-0.722,5.25-0.621c0.337,0.286,0.668,0.582,0.991,0.885
								c-0.548-0.228-1.998,0.056-3.672,1.113C360.047,437.146,357.798,436.878,359.171,434.778z"/>
						</g>
						<g>
							<path style="fill:#787878;" d="M363.392,428.458c1.415-2.159,3.457,0.709,2.712,2.642c-0.664,1.921-0.882,3.367-0.665,3.915
								c-0.302-0.326-0.613-0.644-0.931-0.955C364.603,434.022,362.134,430.561,363.392,428.458z"/>
						</g>
					</g>
					<g>
						<g>
							<path style="fill:#787878;" d="M355.764,432.895c0.972-2.443,5.082-1.588,5.078-1.487c0.38,0.226,0.755,0.461,1.124,0.706
								c-0.577-0.133-1.958,0.39-3.432,1.712C357.031,435.087,354.764,435.196,355.764,432.895z"/>
						</g>
						<g>
							<path style="fill:#787878;" d="M358.867,425.957c1.035-2.366,3.537,0.126,3.124,2.156c-0.333,2.006-0.307,3.467-0.003,3.97
								c-0.352-0.27-0.71-0.532-1.075-0.785C361.002,431.246,357.983,428.242,358.867,425.957z"/>
						</g>
					</g>
					<g>
						<g>
							<path style="fill:#787878;" d="M352.059,431.602c0.548-2.573,4.777-2.411,4.786-2.31c0.415,0.16,0.825,0.33,1.231,0.51
								c-0.592-0.035-1.871,0.71-3.105,2.259C353.699,433.555,351.463,434.039,352.059,431.602z"/>
						</g>
						<g>
							<path style="fill:#787878;" d="M353.945,424.239c0.622-2.507,3.54-0.463,3.475,1.609c0.013,2.035,0.287,3.473,0.673,3.919
								c-0.393-0.208-0.792-0.407-1.197-0.596C356.98,429.105,353.465,426.64,353.945,424.239z"/>
						</g>
					</g>
					<g>
						<path style="fill:#787878;" d="M354.444,428.316c0.061-0.035-3.13-2.182-5.209-2.52c-2.032-0.392-2.807,1.04-2.472,1.879
							c0.324,0.849,1.75,1.064,2.959,0.993C350.911,428.501,354.427,428.254,354.444,428.316z"/>
						<path style="fill:#787878;" d="M354.499,428.449c0.006-0.003,0.011-0.005,0.017-0.008c0.053-0.03,0.081-0.092,0.07-0.152
							c-0.001-0.004-0.002-0.009-0.004-0.013c-0.011-0.039-0.02-0.068-0.072-0.087c-0.513-0.492-3.465-2.243-5.251-2.534
							c-1-0.194-1.857,0.034-2.346,0.627c-0.352,0.426-0.463,0.994-0.282,1.447c0.437,1.148,2.484,1.119,3.1,1.083
							c1.159-0.162,4.36-0.385,4.666-0.359C354.43,428.463,354.466,428.462,354.499,428.449z M347.745,426.021
							c0.339-0.139,0.812-0.21,1.463-0.084c1.64,0.267,3.953,1.659,4.803,2.231c-0.301,0.012-0.769,0.043-1.499,0.096
							c-0.941,0.068-2.173,0.173-2.81,0.262c-1.158,0.068-2.512-0.132-2.805-0.902c-0.143-0.359-0.05-0.813,0.236-1.16
							C347.25,426.323,347.444,426.145,347.745,426.021z"/>
					</g>
				</g>
				<g>
					<g>
						<path style="fill:#787878;" d="M372.932,442.978c3.274-7.635,2.839-16.534-1.314-23.815c-0.059-0.103-0.023-0.235,0.08-0.293
							c0.103-0.059,0.235-0.023,0.293,0.08c4.189,7.344,4.656,16.308,1.409,24.028H372.932z"/>
					</g>
					<g>
						<g>
							<path style="fill:#787878;" d="M371.175,436.492c2.609,0.344,2.755,4.59,2.65,4.621c-0.132,0.432-0.275,0.863-0.43,1.291
								c-0.002-0.607-0.833-1.843-2.466-2.967C369.35,438.264,368.702,436.072,371.175,436.492z"/>
						</g>
						<g>
							<path style="fill:#787878;" d="M378.656,437.832c2.547,0.429,0.725,3.488-1.352,3.592c-2.031,0.171-3.451,0.563-3.874,0.993
								c0.184-0.417,0.356-0.839,0.518-1.263C374.027,441.22,376.23,437.515,378.656,437.832z"/>
						</g>
					</g>
					<g>
						<g>
							<path style="fill:#787878;" d="M371.536,432.605c2.628-0.094,3.493,4.023,3.397,4.066c-0.055,0.442-0.122,0.884-0.2,1.325
								c-0.108-0.588-1.139-1.652-2.94-2.476C370.036,434.641,369.027,432.608,371.536,432.605z"/>
						</g>
						<g>
							<path style="fill:#787878;" d="M379.136,432.67c2.582-0.003,1.303,3.287-0.723,3.73c-1.971,0.502-3.301,1.118-3.642,1.604
								c0.108-0.435,0.205-0.873,0.291-1.312C375.147,436.746,376.689,432.767,379.136,432.67z"/>
						</g>
					</g>
					<g>
						<g>
							<path style="fill:#787878;" d="M371.243,428.73c2.574-0.529,4.114,3.369,4.028,3.424c0.02,0.442,0.029,0.885,0.026,1.329
								c-0.206-0.556-1.401-1.426-3.314-1.933C370.103,430.983,368.769,429.153,371.243,428.73z"/>
						</g>
						<g>
							<path style="fill:#787878;" d="M378.746,427.522c2.545-0.433,1.833,3.015-0.09,3.785c-1.86,0.821-3.067,1.645-3.321,2.177
								c0.033-0.443,0.055-0.887,0.066-1.332C375.493,432.196,376.349,428.031,378.746,427.522z"/>
						</g>
					</g>
					<g>
						<g>
							<path style="fill:#787878;" d="M370.304,424.952c2.451-0.951,4.622,2.643,4.545,2.709c0.093,0.432,0.176,0.867,0.248,1.304
								c-0.296-0.513-1.619-1.169-3.59-1.349C369.56,427.372,367.937,425.785,370.304,424.952z"/>
						</g>
						<g>
							<path style="fill:#787878;" d="M377.499,422.504c2.438-0.852,2.314,2.677,0.546,3.756c-1.696,1.121-2.749,2.134-2.911,2.7
								c-0.041-0.441-0.094-0.882-0.157-1.322C375.076,427.668,375.223,423.411,377.499,422.504z"/>
						</g>
					</g>
					<g>
						<g>
							<path style="fill:#787878;" d="M368.73,421.357c2.258-1.349,5.017,1.859,4.95,1.935c0.165,0.413,0.32,0.829,0.464,1.25
								c-0.378-0.458-1.793-0.887-3.768-0.737C368.415,423.888,366.539,422.579,368.73,421.357z"/>
						</g>
						<g>
							<path style="fill:#787878;" d="M375.408,417.729c2.26-1.25,2.749,2.279,1.186,3.641c-1.482,1.395-2.35,2.574-2.414,3.16
								c-0.115-0.43-0.241-0.857-0.378-1.283C373.908,423.263,373.322,419.011,375.408,417.729z"/>
						</g>
					</g>
					<g>
						<path style="fill:#787878;" d="M372.761,420.869c0.067,0.021-0.531-3.779-1.698-5.532c-1.095-1.756-2.673-1.349-3.059-0.533
							c-0.402,0.815,0.411,2.006,1.286,2.843C370.221,418.406,372.794,420.814,372.761,420.869z"/>
						<path style="fill:#787878;" d="M372.701,420.999c0.006,0.003,0.012,0.005,0.018,0.007c0.058,0.018,0.123-0.003,0.159-0.052
							c0.003-0.003,0.005-0.008,0.007-0.012c0.021-0.034,0.036-0.061,0.015-0.112c0.012-0.711-0.714-4.065-1.717-5.572
							c-0.539-0.865-1.289-1.337-2.056-1.293c-0.552,0.032-1.044,0.337-1.252,0.778c-0.544,1.102,0.87,2.581,1.316,3.008
							c0.908,0.739,3.249,2.933,3.439,3.174C372.643,420.958,372.669,420.984,372.701,420.999z M369.884,414.399
							c0.332,0.153,0.707,0.452,1.057,1.014c0.92,1.383,1.475,4.026,1.634,5.038c-0.214-0.213-0.555-0.534-1.09-1.033
							c-0.69-0.643-1.605-1.474-2.104-1.88c-0.838-0.802-1.612-1.931-1.248-2.669c0.165-0.35,0.562-0.591,1.011-0.617
							C369.325,414.241,369.588,414.262,369.884,414.399z"/>
					</g>
				</g>
			</g>
		</g>
	</g>
</g>
<g id="Car">
	<g>
		<path style="fill:#263238;stroke:#263238;stroke-miterlimit:10;" d="M609.899,401.565c0,0,58.442-5.449,60.133-6.389
			c1.691-0.94,4.134-2.819,4.134-2.819l28.375,0.376l0.376-6.765l-24.429-0.376l-40.026,4.134v-4.322
			c0,0-1.879-27.248-22.174-43.784s-31.758-18.791-59.569-17.852c-27.811,0.94-58.817,43.408-63.327,51.677
			c-4.51,8.268-6.389,9.772-6.389,9.772H210.956l-0.242-8.367c-0.746-25.83-18.6-48.003-43.676-54.241l0,0
			c-11.421-2.841-23.438-2.116-34.435,2.077l-11.67,4.45c-24.972,9.523-40.298,34.967-36.661,61.445
			c1.046,7.613,0.935,12.608-1.662,10.797c-8.08-5.638-0.188,5.074,6.577,6.765s14.657,2.443,14.657,2.443H233.13l274.083-0.626
			L609.899,401.565z"/>
		<path style="fill:#92E3A9;stroke:#263238;stroke-miterlimit:10;" d="M314.964,226.882c0,0-95.758,63.472-98.326,63.472
			c-2.568,0-4.036-1.101-5.87,0.367c-1.835,1.468-3.669,2.201-3.669,2.201l-102.362,12.107c0,0-36.689,7.338-44.026,9.539
			c-7.338,2.201-13.575,9.172-13.208,12.107c0.367,2.935,4.036,27.883,4.036,27.883l4.036,31.919c0,0-2.201,11.374-0.367,12.841
			c1.834,1.467,10.273,4.403,14.675,5.503c4.403,1.101,16.877,1.101,16.877,1.101s1.101-20.546,5.136-36.689
			c4.036-16.143,16.098-34.904,53.565-36.689c38.523-1.835,55.767,43.66,55.767,43.66l7.705,28.617l14.676,5.136h283.604
			c0,0-1.101-31.919,5.136-44.76c6.237-12.841,23.114-27.15,43.66-29.718c20.546-2.568,37.789,3.669,46.961,7.338
			c9.172,3.669,19.812,28.617,21.28,36.689c1.467,8.071,3.302,8.438,3.302,8.438s66.407-3.669,70.442-6.971
			c4.036-3.302,9.539-18.344,10.64-39.257c1.101-20.912-0.367-40.724-2.568-44.026c-2.201-3.302-6.971-3.669-6.971-3.669
			l-83.283-5.503c0,0-76.313-62.371-80.715-63.471c-1.815-0.454-4.441-1.095-6.901-1.691c-4.415-1.071-8.925-1.693-13.465-1.86
			l-43.106-1.585l-60.169,0.367C411.455,220.278,349.818,219.544,314.964,226.882z"/>
		<polygon style="opacity:0.62;fill:#FFFFFF;" points="693.36,311.311 190.004,311.311 70.956,318.501 693.36,318.501 		"/>
		<path style="fill:#263238;stroke:#263238;stroke-miterlimit:10;" d="M621.315,365.565h96.206c1.778,0,3.22-1.442,3.22-3.22v-8.603
			c0-1.778-1.441-3.22-3.22-3.22h-102.81L621.315,365.565z"/>
		<path style="fill:#263238;stroke:#263238;stroke-miterlimit:10;" d="M88.996,371.802H43.924c-2.278,0-4.126-1.847-4.126-4.125
			v-6.791c0-2.279,1.847-4.125,4.126-4.125h50.174L88.996,371.802z"/>
		<g>
			<rect x="197.56" y="353.087" style="fill:#263238;stroke:#263238;stroke-miterlimit:10;" width="38.156" height="6.979"/>
			<rect x="238.652" y="353.087" style="fill:#263238;stroke:#263238;stroke-miterlimit:10;" width="156.661" height="6.979"/>
			<polygon style="fill:#263238;stroke:#263238;stroke-miterlimit:10;" points="398.247,353.087 398.247,360.066 503.544,360.066 
				507.213,353.087 			"/>
		</g>
		<g>
			<path style="fill:#263238;stroke:#263238;stroke-miterlimit:10;" d="M69.884,404.822c4.403,1.101,16.877,1.101,16.877,1.101
				s0.43-8.021,1.737-17.977H55.315c-0.522,3.121-1.531,10.234-0.107,11.374C57.043,400.786,65.481,403.721,69.884,404.822z"/>
			<path style="fill:#263238;stroke:#263238;stroke-miterlimit:10;" d="M507.356,394.182H206.069l2.865,10.64l14.676,5.136h283.604
				C507.213,409.958,506.971,402.951,507.356,394.182z"/>
		</g>
		<rect x="364.127" y="309.798" style="fill:#263238;stroke:#263238;stroke-miterlimit:10;" width="25.682" height="4.769"/>
		<rect x="509.781" y="309.798" style="fill:#263238;stroke:#263238;stroke-miterlimit:10;" width="25.682" height="4.769"/>
		<path style="fill:#878787;stroke:#263238;stroke-miterlimit:10;" d="M238.285,292.921c7.338-2.568,77.413-57.234,78.881-62.738
			c0.424-1.59,0.474-2.834,0.34-3.812c-0.86,0.166-1.711,0.335-2.541,0.51c0,0-95.758,63.471-98.326,63.471
			C216.638,290.353,230.947,295.49,238.285,292.921z"/>
		<path style="fill:#878787;stroke:#263238;stroke-miterlimit:10;" d="M608.841,288.519c1.468,0.367,10.273,0.367,10.273,0.367
			l-0.112-0.156l-3.19-0.211c0,0-76.313-62.371-80.715-63.471c0,0,5.136,5.136,9.172,8.438
			C548.304,236.788,607.373,288.152,608.841,288.519z"/>
		<path style="fill:#FFFFFF;stroke:#263238;stroke-miterlimit:10;" d="M705.674,310.443c-2.517-0.186-4.708,1.704-4.893,4.221
			l-1.136,15.401c-0.186,2.517,1.704,4.708,4.221,4.893l3.326,0.245c0.597,0.044,1.172-0.036,1.71-0.206
			c0.252-9.118,0.036-17.686-0.488-24.352L705.674,310.443z"/>
		<g>
			
				<ellipse transform="matrix(0.3827 -0.9239 0.9239 0.3827 -275.0821 375.8219)" style="fill:#263238;stroke:#263238;stroke-miterlimit:10;" cx="143.688" cy="393.756" rx="49.222" ry="49.223"/>
			
				<ellipse transform="matrix(0.5969 -0.8023 0.8023 0.5969 -257.9914 273.9904)" style="fill:#FFFFFF;stroke:#263238;stroke-miterlimit:10;" cx="143.687" cy="393.756" rx="30.529" ry="30.529"/>
			
				<ellipse transform="matrix(0.9871 -0.1602 0.1602 0.9871 -61.2172 28.1005)" style="fill:#FFFFFF;stroke:#263238;stroke-miterlimit:10;" cx="143.688" cy="393.756" rx="18.015" ry="18.015"/>
			<path style="fill:#263238;stroke:#263238;stroke-miterlimit:10;" d="M147.213,386.894c0-1.461-1.185-2.646-2.646-2.646
				c-1.461,0-2.646,1.185-2.646,2.646s1.185,2.646,2.646,2.646C146.029,389.54,147.213,388.355,147.213,386.894z"/>
			<path style="fill:#263238;stroke:#263238;stroke-miterlimit:10;" d="M138.24,394.108c0-1.461-1.185-2.646-2.646-2.646
				s-2.646,1.185-2.646,2.646c0,1.461,1.185,2.646,2.646,2.646S138.24,395.569,138.24,394.108z"/>
			<path style="fill:#263238;stroke:#263238;stroke-miterlimit:10;" d="M153.689,396.53c0-1.461-1.185-2.646-2.646-2.646
				c-1.461,0-2.646,1.185-2.646,2.646s1.185,2.646,2.646,2.646C152.505,399.176,153.689,397.992,153.689,396.53z"/>
			<circle style="fill:#263238;stroke:#263238;stroke-miterlimit:10;" cx="142.428" cy="402.33" r="2.646"/>
		</g>
		<g>
			
				<ellipse transform="matrix(0.9718 -0.2357 0.2357 0.9718 -76.8776 144.2383)" style="fill:#263238;stroke:#263238;stroke-miterlimit:10;" cx="565.018" cy="393.756" rx="49.222" ry="49.222"/>
			
				<ellipse transform="matrix(0.9715 -0.2371 0.2371 0.9715 -77.2498 145.1979)" style="fill:#FFFFFF;stroke:#263238;stroke-miterlimit:10;" cx="565.018" cy="393.756" rx="30.529" ry="30.529"/>
			
				<ellipse transform="matrix(0.9872 -0.1593 0.1593 0.9872 -55.5066 95.0282)" style="fill:#FFFFFF;stroke:#263238;stroke-miterlimit:10;" cx="565.018" cy="393.756" rx="18.015" ry="18.015"/>
			<path style="fill:#263238;stroke:#263238;stroke-miterlimit:10;" d="M568.544,386.894c0-1.461-1.185-2.646-2.646-2.646
				c-1.461,0-2.646,1.185-2.646,2.646s1.185,2.646,2.646,2.646C567.359,389.54,568.544,388.355,568.544,386.894z"/>
			<path style="fill:#263238;stroke:#263238;stroke-miterlimit:10;" d="M559.57,394.108c0-1.461-1.185-2.646-2.646-2.646
				c-1.461,0-2.646,1.185-2.646,2.646c0,1.461,1.185,2.646,2.646,2.646C558.386,396.753,559.57,395.569,559.57,394.108z"/>
			<circle style="fill:#263238;stroke:#263238;stroke-miterlimit:10;" cx="572.374" cy="396.53" r="2.646"/>
			<path style="fill:#263238;stroke:#263238;stroke-miterlimit:10;" d="M566.405,402.33c0-1.461-1.185-2.646-2.646-2.646
				c-1.461,0-2.646,1.185-2.646,2.646s1.185,2.646,2.646,2.646C565.22,404.976,566.405,403.791,566.405,402.33z"/>
		</g>
		<path style="fill:#5C5C5C;stroke:#263238;stroke-miterlimit:10;" d="M330.045,235.69c0,0-77.004,59.514-76.033,60.729
			c0.972,1.215,5.101,0.729,5.101,0.729l288.098-7.044c0,0,6.073-8.502,5.83-13.118c-0.243-4.615-7.288-12.389-7.288-12.389
			s-28.421-31.579-35.951-33.765c-7.53-2.186-112.47-0.729-112.47-0.729l-59.029,3.644
			C338.304,233.746,332.96,234.475,330.045,235.69z"/>
		<path style="fill:#263238;stroke:#263238;stroke-miterlimit:10;" d="M388.656,293.98l27.404-0.67l11.284-63.525
			c-9.167,0.074-17.125,0.16-22.54,0.224L388.656,293.98z"/>
		<line style="fill:none;stroke:#878787;stroke-miterlimit:10;" x1="416.766" y1="232.532" x2="405.349" y2="289.86"/>
		<path style="fill:#263238;stroke:#263238;stroke-miterlimit:10;" d="M503.554,230.21l6.735,44.589l-2.848,16.276l8.752-0.214
			l-7.36-60.222C507.696,230.472,505.887,230.33,503.554,230.21z"/>
		<path style="fill:#878787;stroke:#263238;stroke-miterlimit:10;" d="M278.547,281.601l-8.259,14.089c0,0,1.701,2.186,4.13,0.729
			c2.429-1.458,9.96-8.016,9.96-8.016L278.547,281.601z"/>
		<path style="fill:#878787;stroke:#263238;stroke-miterlimit:10;" d="M287.335,290.026l-4.139,0.686
			c-1.949,0.323-3.792-0.995-4.115-2.945l-2.008-12.112c-0.323-1.949,0.995-3.792,2.945-4.115l4.139-0.686L287.335,290.026z"/>
		<g>
			<path style="fill:none;stroke:#263238;stroke-miterlimit:10;" d="M357.74,227.455c-11.962,0.935-23.3,2.204-27.734,3.829
				c-11.007,4.036-81.449,65.673-81.449,65.673"/>
			<path style="fill:none;stroke:#263238;stroke-miterlimit:10;" d="M539.818,323.946c2.007-1.577,3.537-3.15,4.45-4.976
				c3.302-6.604,7.338-26.783,7.338-26.783s9.539-11.74,3.669-23.848c-5.87-12.107-28.617-33.387-34.12-37.056
				c-5.503-3.669-15.409-5.503-18.344-5.503c-2.935,0-108.232-0.367-108.232-0.367s-13.879,0.475-28.96,1.474"/>
			<path style="fill:none;stroke:#263238;stroke-miterlimit:10;" d="M462.769,387.945h36.372c0,0,4.77-34.854,17.611-46.961
				c7.076-6.671,13.706-10.669,18.785-14.019"/>
			<line style="fill:none;stroke:#263238;stroke-miterlimit:10;" x1="248.128" y1="387.945" x2="456.223" y2="387.945"/>
			<path style="fill:none;stroke:#263238;stroke-miterlimit:10;" d="M236.682,321.517c-0.62,14.432,0.013,40.672,0.868,48.084
				c1.101,9.539,2.568,18.344,2.568,18.344h3.53"/>
			<path style="fill:none;stroke:#263238;stroke-miterlimit:10;" d="M243.421,301.727c0,0-4.036,4.403-5.87,11.007"/>
			<path style="fill:none;stroke:#263238;stroke-miterlimit:10;" d="M396.699,343.53c-0.476,17.47-0.653,42.214-0.653,42.214"/>
			<path style="fill:none;stroke:#263238;stroke-miterlimit:10;" d="M404.851,296.223c0,0-6.237,24.215-7.338,31.185
				c-0.252,1.598-0.466,5.531-0.646,10.643"/>
			<line style="fill:none;stroke:#263238;stroke-miterlimit:10;" x1="212.081" y1="300.113" x2="226.999" y2="298.688"/>
			<line style="fill:none;stroke:#263238;stroke-miterlimit:10;" x1="60.711" y1="314.568" x2="202.919" y2="300.988"/>
		</g>
	</g>
</g>
<g id="Floor">
	<line style="fill:none;stroke:#263238;stroke-miterlimit:10;" x1="15.028" y1="442.978" x2="737.303" y2="442.978"/>
</g>
</svg>
